<?xml version="1.0" encoding="UTF-8" standalone="no"?>
<!-- Generator: Adobe Illustrator 16.0.3, SVG Export Plug-In . SVG Version: 6.00 Build 0)  -->

<svg
   xmlns:dc="http://purl.org/dc/elements/1.1/"
   xmlns:cc="http://creativecommons.org/ns#"
   xmlns:rdf="http://www.w3.org/1999/02/22-rdf-syntax-ns#"
   xmlns:svg="http://www.w3.org/2000/svg"
   xmlns="http://www.w3.org/2000/svg"
   xmlns:sodipodi="http://sodipodi.sourceforge.net/DTD/sodipodi-0.dtd"
   xmlns:inkscape="http://www.inkscape.org/namespaces/inkscape"
   version="1.1"
   id="Warstwa_1"
   x="0px"
   y="0px"
   width="364.785px"
   height="61.262px"
   viewBox="0 0 364.785 61.262"
   enable-background="new 0 0 364.785 61.262"
   xml:space="preserve"
   inkscape:version="0.48.4 r9939"
   sodipodi:docname="hcloud_logo_onblack_RGB.old.svg"><metadata
   id="metadata73"><rdf:RDF><cc:Work
       rdf:about=""><dc:format>image/svg+xml</dc:format><dc:type
         rdf:resource="http://purl.org/dc/dcmitype/StillImage" /><dc:title></dc:title></cc:Work></rdf:RDF></metadata><defs
   id="defs71" /><sodipodi:namedview
   pagecolor="#ffffff"
   bordercolor="#666666"
   borderopacity="1"
   objecttolerance="10"
   gridtolerance="10"
   guidetolerance="10"
   inkscape:pageopacity="0"
   inkscape:pageshadow="2"
   inkscape:window-width="1677"
   inkscape:window-height="953"
   id="namedview69"
   showgrid="false"
   inkscape:zoom="3.4650547"
   inkscape:cx="90.903886"
   inkscape:cy="35.869253"
   inkscape:window-x="0"
   inkscape:window-y="0"
   inkscape:window-maximized="0"
   inkscape:current-layer="Warstwa_1" />
<g
   id="g3">
	<path
   fill="#F0F0F0"
   d="M104.006,20.456H86.986v9.769c0,1.037-0.813,1.851-1.849,1.851c-1.037,0-1.85-0.813-1.85-1.851V8.471   c0-1.037,0.813-1.851,1.85-1.851c1.036,0,1.849,0.813,1.849,1.851v8.436h17.021V8.471c0-1.037,0.813-1.851,1.85-1.851   c1.036,0,1.851,0.813,1.851,1.851v21.754c0,1.037-0.814,1.851-1.851,1.851c-1.037,0-1.85-0.813-1.85-1.851V20.456z"
   id="path5" />
	<path
   fill="#F0F0F0"
   d="M122.504,30.225c0,1.037-0.814,1.851-1.853,1.851c-1.037,0-1.852-0.813-1.852-1.851V8.471   c0-1.037,0.814-1.851,1.852-1.851c1.038,0,1.853,0.813,1.853,1.851V30.225z"
   id="path7" />
	<path
   fill="#F0F0F0"
   d="M149.656,21.123c0-1.036,0.813-1.775,1.852-1.775c1.034,0,1.852,0.813,1.852,1.849v5.847   c0,0.444-0.226,1.109-0.595,1.479c-2.367,2.369-5.549,3.775-9.176,3.775c-7.178,0-12.949-5.771-12.949-12.95   c0-7.18,5.771-12.949,12.949-12.949c3.627,0,6.809,1.405,9.176,3.773c0.738,0.739,0.738,1.85,0,2.59   c-0.741,0.739-1.922,0.813-2.663,0.073c-1.702-1.7-3.923-2.737-6.513-2.737c-5.104,0-9.249,4.144-9.249,9.25   c0,5.105,4.146,9.25,9.249,9.25c2.367,0,4.441-0.813,6.067-2.221V21.123L149.656,21.123z"
   id="path9" />
	<path
   fill="#F0F0F0"
   d="M183.693,20.456h-17.019v9.769c0,1.037-0.817,1.851-1.852,1.851c-1.037,0-1.85-0.813-1.85-1.851V8.471   c0-1.037,0.813-1.851,1.85-1.851c1.033,0,1.852,0.813,1.852,1.851v8.436h17.019V8.471c0-1.037,0.814-1.851,1.85-1.851   c1.037,0,1.852,0.813,1.852,1.851v21.754c0,1.037-0.813,1.851-1.852,1.851c-1.034,0-1.85-0.813-1.85-1.851V20.456z"
   id="path11" />
	<path
   fill="#F0F0F0"
   d="M208.478,32.298c-7.181,0-12.949-5.771-12.949-12.95c0-7.18,5.77-12.949,12.949-12.949   c3.627,0,6.81,1.405,9.176,3.773c0.738,0.739,0.738,1.85,0,2.59c-0.74,0.739-1.925,0.813-2.666,0.073   c-1.698-1.7-3.92-2.737-6.51-2.737c-5.105,0-9.249,4.144-9.249,9.25c0,5.105,4.144,9.25,9.249,9.25c2.59,0,4.884-0.962,6.586-2.664   c0.741-0.741,1.85-0.741,2.59,0c0.738,0.74,0.738,1.85,0,2.589C215.287,30.891,212.105,32.298,208.478,32.298z"
   id="path13" />
	<path
   fill="#F0F0F0"
   d="M247.1,20.456h-17.019v9.769c0,1.037-0.814,1.851-1.853,1.851c-1.034,0-1.849-0.813-1.849-1.851V8.471   c0-1.037,0.813-1.851,1.849-1.851c1.037,0,1.853,0.813,1.853,1.851v8.436H247.1V8.471c0-1.037,0.814-1.851,1.853-1.851   c1.033,0,1.849,0.813,1.849,1.851v21.754c0,1.037-0.814,1.851-1.849,1.851c-1.037,0-1.853-0.813-1.853-1.851V20.456z"
   id="path15" />
	<path
   fill="#F0F0F0"
   d="M274.287,8.248l10.509,20.646c0.221,0.445,0.442,1.036,0.442,1.554c0,1.036-0.666,1.628-1.703,1.628   c-0.737,0-1.479-0.222-1.998-1.258l-3.254-6.438h-13.547l-3.182,6.438c-0.516,1.036-1.257,1.258-1.995,1.258   c-1.037,0-1.702-0.593-1.702-1.628c0-0.519,0.221-1.108,0.442-1.554l10.506-20.646c0.668-1.406,2.002-1.628,2.741-1.628   C272.288,6.619,273.619,6.842,274.287,8.248z M266.515,20.827h9.989l-4.957-9.99L266.515,20.827z"
   id="path17" />
	<path
   fill="#F0F0F0"
   d="M305.69,6.768c4.438,0,8.063,3.255,8.063,7.696c0,3.921-2.812,6.882-6.511,7.547l6.734,7.104   c0.666,0.666,0.885,1.851,0.146,2.517c-0.739,0.74-2.146,0.519-2.885-0.297l-8.733-9.176h-6.511v8.141   c0,1.035-0.813,1.775-1.85,1.775s-1.85-0.813-1.85-1.851V8.617c0-1.035,0.813-1.85,1.85-1.85H305.69L305.69,6.768z M295.994,10.32   v8.288h9.695c2.59,0,4.365-1.776,4.365-4.144s-1.775-4.145-4.365-4.145H295.994z"
   id="path19" />
	<path
   fill="#F0F0F0"
   d="M330.576,10.32h-9.248c-1.036,0-1.852-0.74-1.852-1.776c0-1.035,0.814-1.774,1.852-1.774h22.197   c1.037,0,1.853,0.74,1.853,1.774c0,1.037-0.814,1.776-1.853,1.776h-9.248v19.905c0,1.037-0.813,1.851-1.85,1.851   c-1.037,0-1.853-0.813-1.853-1.851L330.576,10.32L330.576,10.32z"
   id="path21" />
	<path
   fill="#F0F0F0"
   d="M354.255,16.758c0-9.25,5.698-10.359,9.987-10.359c1.037,0,1.853,0.813,1.853,1.85   c0,1.036-0.814,1.85-1.853,1.85c-3.479,0-6.287,0.739-6.287,6.66v5.18c0,9.25-5.698,10.36-9.989,10.36   c-1.037,0-1.853-0.814-1.853-1.851s0.814-1.85,1.853-1.85c3.477,0,6.289-0.74,6.289-6.66V16.758L354.255,16.758z"
   id="path23" />
</g>
<g
   id="g25">
	<g
   id="g27">
		<path
   fill="#8086E8"
   d="M89.96,58.744c-4.225,0-7.621-3.396-7.621-7.621s3.396-7.622,7.621-7.622c2.134,0,4.006,0.828,5.398,2.223    c0.438,0.435,0.438,1.088,0,1.522c-0.435,0.437-1.131,0.479-1.565,0.044c-1.003-1.001-2.31-1.61-3.833-1.61    c-3.005,0-5.442,2.438-5.442,5.443c0,3.004,2.438,5.443,5.442,5.443c1.523,0,2.875-0.566,3.876-1.568    c0.435-0.435,1.088-0.435,1.522,0c0.438,0.437,0.438,1.088,0,1.525C93.966,57.916,92.094,58.744,89.96,58.744z"
   id="path29" />
		<path
   fill="#8086E8"
   d="M89.96,58.869c-4.271,0-7.746-3.475-7.746-7.746c0-4.271,3.475-7.747,7.746-7.747    c2.083,0,4.033,0.803,5.488,2.259c0.234,0.233,0.363,0.535,0.363,0.85s-0.129,0.616-0.363,0.85    c-0.245,0.245-0.578,0.387-0.914,0.387c-0.314,0-0.609-0.122-0.829-0.343c-1.032-1.029-2.327-1.574-3.745-1.574    c-2.933,0-5.317,2.386-5.317,5.318c0,2.934,2.385,5.318,5.317,5.318c1.477,0,2.787-0.529,3.788-1.531    c0.468-0.468,1.231-0.468,1.7,0c0.233,0.234,0.363,0.536,0.363,0.851c0,0.313-0.129,0.616-0.363,0.852    C93.992,58.068,92.043,58.869,89.96,58.869z M89.96,43.626c-4.133,0-7.496,3.363-7.496,7.497s3.362,7.496,7.496,7.496    c2.046,0,3.882-0.755,5.311-2.184c0.188-0.188,0.291-0.427,0.291-0.675c0-0.247-0.104-0.486-0.291-0.674    c-0.374-0.373-0.973-0.373-1.347,0c-1.034,1.035-2.441,1.604-3.964,1.604c-3.07,0-5.567-2.498-5.567-5.568    s2.498-5.568,5.567-5.568c1.485,0,2.842,0.569,3.921,1.647c0.362,0.362,1.008,0.336,1.39-0.044    c0.188-0.187,0.291-0.426,0.291-0.673s-0.104-0.486-0.291-0.673C93.842,44.383,92.006,43.626,89.96,43.626z"
   id="path31" />
	</g>
	<g
   id="g33">
		<path
   fill="#8086E8"
   d="M104.173,56.437h9.364c0.61,0,1.088,0.435,1.088,1.044c0,0.61-0.479,1.046-1.088,1.046h-10.452    c-0.609,0-1.089-0.479-1.089-1.089V44.809c0-0.609,0.479-1.089,1.089-1.089s1.087,0.436,1.087,1.045L104.173,56.437    L104.173,56.437z"
   id="path35" />
		<path
   fill="#8086E8"
   d="M113.537,58.652h-10.452c-0.682,0-1.214-0.533-1.214-1.214V44.809c0-0.682,0.532-1.214,1.214-1.214    c0.69,0,1.212,0.503,1.212,1.17v11.547h9.239c0.691,0,1.213,0.503,1.213,1.169C114.751,58.149,114.229,58.652,113.537,58.652z     M103.086,43.845c-0.541,0-0.964,0.423-0.964,0.964v12.629c0,0.541,0.424,0.964,0.964,0.964h10.452    c0.558,0,0.963-0.387,0.963-0.921c0-0.533-0.405-0.919-0.963-0.919h-9.489V44.765C104.048,44.24,103.634,43.845,103.086,43.845z"
   id="path37" />
	</g>
	<g
   id="g39">
		<path
   fill="#8086E8"
   d="M124.617,43.501c4.225,0,7.619,3.397,7.619,7.622s-3.396,7.621-7.619,7.621    c-4.225,0-7.62-3.396-7.62-7.621S120.393,43.501,124.617,43.501z M124.617,56.567c3.006,0,5.442-2.439,5.442-5.443    c0-3.005-2.438-5.443-5.442-5.443c-3.004,0-5.445,2.438-5.445,5.443C119.173,54.127,121.614,56.567,124.617,56.567z"
   id="path41" />
		<path
   fill="#8086E8"
   d="M124.617,58.869c-4.271,0-7.745-3.475-7.745-7.746c0-4.271,3.475-7.747,7.745-7.747    c4.27,0,7.744,3.476,7.744,7.747C132.364,55.395,128.888,58.869,124.617,58.869z M124.617,43.626    c-4.134,0-7.495,3.363-7.495,7.497s3.361,7.496,7.495,7.496c4.133,0,7.494-3.362,7.494-7.496    C132.114,46.99,128.75,43.626,124.617,43.626z M124.617,56.692c-3.071,0-5.57-2.498-5.57-5.568s2.499-5.568,5.57-5.568    c3.069,0,5.567,2.498,5.567,5.568C130.186,54.194,127.688,56.692,124.617,56.692z M124.617,45.805c-2.935,0-5.32,2.386-5.32,5.318    c0,2.934,2.386,5.318,5.32,5.318c2.933,0,5.317-2.386,5.317-5.318C129.935,48.192,127.55,45.805,124.617,45.805z"
   id="path43" />
	</g>
	<g
   id="g45">
		<path
   fill="#8086E8"
   d="M137.656,44.722c0-0.609,0.478-1.089,1.088-1.089c0.609,0,1.088,0.479,1.088,1.089v6.401    c0,3.004,2.438,5.443,5.444,5.443c3.004,0,5.442-2.439,5.442-5.443v-6.401c0-0.609,0.479-1.089,1.09-1.089    c0.608,0,1.088,0.479,1.088,1.089v6.401c0,4.225-3.396,7.621-7.62,7.621c-4.226,0-7.621-3.396-7.621-7.621L137.656,44.722    L137.656,44.722z"
   id="path47" />
		<path
   fill="#8086E8"
   d="M145.278,58.869c-4.271,0-7.746-3.475-7.746-7.746v-6.401c0-0.682,0.532-1.214,1.213-1.214    c0.68,0,1.213,0.532,1.213,1.214v6.401c0,2.934,2.386,5.318,5.319,5.318c2.933,0,5.317-2.386,5.317-5.318v-6.401    c0-0.682,0.534-1.214,1.215-1.214s1.213,0.532,1.213,1.214v6.401C153.023,55.395,149.548,58.869,145.278,58.869z M138.744,43.758    c-0.54,0-0.963,0.424-0.963,0.964v6.401c0,4.134,3.362,7.496,7.496,7.496s7.495-3.362,7.495-7.496v-6.401    c0-0.541-0.423-0.964-0.963-0.964c-0.541,0-0.965,0.424-0.965,0.964v6.401c0,3.07-2.497,5.568-5.567,5.568    s-5.569-2.498-5.569-5.568v-6.401C139.708,44.181,139.284,43.758,138.744,43.758z"
   id="path49" />
	</g>
	<g
   id="g51">
		<path
   fill="#8086E8"
   d="M165.935,43.72c4.226,0,7.622,3.179,7.622,7.403s-3.396,7.403-7.622,7.403h-4.79    c-0.608,0-1.087-0.479-1.087-1.089V44.809c0-0.609,0.479-1.089,1.087-1.089H165.935z M162.235,45.81v10.626h3.7    c3.006,0,5.445-2.31,5.445-5.313c0-3.005-2.439-5.313-5.445-5.313H162.235L162.235,45.81z"
   id="path53" />
		<path
   fill="#8086E8"
   d="M165.935,58.652h-4.79c-0.68,0-1.212-0.533-1.212-1.214V44.809c0-0.682,0.532-1.214,1.212-1.214h4.79    c4.344,0,7.747,3.307,7.747,7.528C173.682,55.346,170.279,58.652,165.935,58.652z M161.145,43.845    c-0.54,0-0.962,0.423-0.962,0.964v12.629c0,0.541,0.422,0.964,0.962,0.964h4.79c4.204,0,7.497-3.197,7.497-7.278    s-3.293-7.278-7.497-7.278H161.145z M165.935,56.562h-3.825V45.685h3.825c3.123,0,5.57,2.389,5.57,5.438    C171.505,54.173,169.058,56.562,165.935,56.562z M162.36,56.312h3.575c2.983,0,5.32-2.279,5.32-5.188s-2.337-5.188-5.32-5.188    h-3.575V56.312z"
   id="path55" />
	</g>
</g>






<polygon
   style="fill:#8087e8"
   transform="matrix(1.0339404,0,0,0.92853224,-27.02873,-27.375589)"
   points="76.301,76.685 94.465,69.013 67.981,30.52 56.757,56.73 42.009,91.171 "
   id="polygon25" /><polygon
   style="fill:#30426b"
   transform="matrix(1.0339404,0,0,0.92853224,-27.02873,-27.375589)"
   points="76.302,76.685 94.466,69.013 73.7,62.25 "
   id="polygon27" /><polygon
   style="fill:#6699a1"
   transform="matrix(1.0339404,0,0,0.92853224,-27.02873,-27.375589)"
   points="73.7,62.251 94.465,69.013 67.981,30.52 "
   id="polygon29" /><polygon
   style="fill:#78758c"
   transform="matrix(1.0339404,0,0,0.92853224,-27.02873,-27.375589)"
   points="42.009,91.171 76.302,76.685 73.7,62.25 94.466,69.013 56.758,56.729 "
   id="polygon31" /><polygon
   style="fill:#a3edba"
   transform="matrix(1.0339404,0,0,0.92853224,-27.02873,-27.375589)"
   points="56.757,56.73 26.442,46.855 42.009,91.171 "
   id="polygon33" /><polygon
   style="fill:#6699a1"
   transform="matrix(1.0339404,0,0,0.92853224,-27.02873,-27.375589)"
   points="79.628,95.13 94.466,69.013 76.302,76.685 "
   id="polygon35" /><polygon
   style="fill:#8087e8"
   transform="matrix(1.0339404,0,0,0.92853224,-27.02873,-27.375589)"
   points="56.757,56.73 73.7,62.251 67.981,30.52 "
   id="polygon37" /></svg>